<svg width="170.241516" height="41.000000" viewBox="0 0 170.242 41" fill="none" xmlns="http://www.w3.org/2000/svg" xmlns:xlink="http://www.w3.org/1999/xlink">
	<desc>
			Created with Pixso.
	</desc>
	<defs/>
	<path d="M91.8614 20.196L91.8614 30.06L94.8614 30.06L94.8614 20.196L98.0294 20.196L98.0294 17.94L94.8374 17.94L94.8374 17.004C94.8374 16.46 94.9254 16.028 95.1014 15.708C95.2934 15.372 95.5494 15.124 95.8694 14.964C96.2054 14.804 96.5814 14.724 96.9974 14.724C97.2694 14.724 97.5494 14.748 97.8374 14.796C98.1254 14.844 98.3734 14.908 98.5814 14.988L98.5814 12.636C98.2934 12.508 97.9494 12.42 97.5494 12.372C97.1654 12.324 96.7974 12.3 96.4454 12.3C94.9414 12.3 93.7974 12.684 93.0134 13.452C92.2454 14.22 91.8614 15.356 91.8614 16.86L91.8614 17.94L89.5334 17.94L89.5334 20.196L91.8614 20.196ZM114.647 12.396L114.647 30.06L117.647 30.06L117.647 12.396L114.647 12.396ZM58.0975 15.684L58.0975 30.06L61.1935 30.06L61.1935 15.684L66.7855 15.684L66.7855 13.14L52.5055 13.14L52.5055 15.684L58.0975 15.684ZM66.8339 21.036L66.8339 30.06L69.8579 30.06L69.8579 23.604C69.8579 22.948 69.9699 22.364 70.1939 21.852C70.4339 21.34 70.7859 20.94 71.2499 20.652C71.7299 20.364 72.3139 20.22 73.0019 20.22Q73.4819 20.22 73.7939 20.268Q74.1299 20.316 74.5859 20.508L74.6099 17.868C74.4339 17.804 74.2579 17.764 74.0819 17.748C73.9059 17.716 73.6739 17.7 73.3859 17.7C72.7459 17.7 72.1539 17.828 71.6099 18.084C71.0659 18.34 70.6019 18.732 70.2179 19.26C70.0524 19.4975 69.9079 19.7625 69.7845 20.055L69.5699 17.94L66.6659 17.94Q66.7619 18.684 66.7859 19.476Q66.8339 20.268 66.8339 21.036ZM78.0586 29.556C78.8586 30.052 79.7866 30.3 80.8426 30.3Q81.9039 30.3 82.8066 29.9215Q83.1694 29.7693 83.5066 29.556C84.0682 29.2007 84.4943 28.7592 84.785 28.2315L84.8026 30.06L87.7786 30.06L87.7786 20.964C87.7786 20.468 87.7946 19.964 87.8266 19.452C87.8746 18.94 87.9226 18.436 87.9706 17.94L85.0906 17.94L84.8822 19.9477Q84.779 19.7343 84.6488 19.539Q84.2296 18.9102 83.5306 18.468C82.7626 17.956 81.8666 17.7 80.8426 17.7C79.7866 17.7 78.8586 17.956 78.0586 18.468Q77.839 18.6041 77.6371 18.7628Q76.7356 19.4711 76.1866 20.628C75.7386 21.556 75.5146 22.676 75.5146 23.988Q75.5146 25.956 76.1866 27.372C76.6346 28.316 77.2586 29.044 78.0586 29.556ZM101.66 29.556C102.46 30.052 103.388 30.3 104.444 30.3C105.436 30.3 106.324 30.052 107.108 29.556C107.67 29.2007 108.096 28.7592 108.387 28.2315L108.404 30.06L111.38 30.06L111.38 20.964C111.38 20.468 111.396 19.964 111.428 19.452C111.476 18.94 111.524 18.436 111.572 17.94L108.692 17.94L108.484 19.9477Q108.381 19.7343 108.25 19.539Q107.831 18.9102 107.132 18.468C106.364 17.956 105.468 17.7 104.444 17.7C103.388 17.7 102.46 17.956 101.66 18.468Q101.441 18.6041 101.239 18.7627Q100.337 19.4711 99.7881 20.628Q99.1161 22.02 99.1161 23.988Q99.1161 25.956 99.7881 27.372C100.236 28.316 100.86 29.044 101.66 29.556ZM123.473 35.076C124.385 35.316 125.401 35.436 126.521 35.436C128.505 35.436 130.009 34.932 131.033 33.924C132.073 32.932 132.593 31.484 132.593 29.58L132.593 20.964C132.593 20.468 132.609 19.964 132.641 19.452C132.673 18.94 132.721 18.436 132.785 17.94L129.881 17.94L129.675 19.9387C129.388 19.3273 128.937 18.829 128.321 18.444Q128.175 18.3476 128.022 18.2636Q126.994 17.7 125.657 17.7C124.569 17.7 123.617 17.948 122.801 18.444C122.001 18.924 121.377 19.62 120.929 20.532C120.481 21.428 120.257 22.492 120.257 23.724Q120.257 25.572 120.929 26.94C121.377 27.852 122.001 28.556 122.801 29.052C123.617 29.532 124.569 29.772 125.657 29.772Q126.861 29.772 127.838 29.2997Q128.087 29.1792 128.321 29.028C128.91 28.6554 129.35 28.1879 129.641 27.6256L129.641 29.94Q129.641 31.3278 128.955 32.1279Q128.882 32.2133 128.801 32.292C128.257 32.852 127.425 33.132 126.305 33.132C125.761 33.132 125.225 33.084 124.697 32.988C124.169 32.892 123.657 32.748 123.161 32.556C122.665 32.364 122.185 32.116 121.721 31.812L121.073 33.972C121.777 34.468 122.577 34.836 123.473 35.076ZM137.73 29.556C138.53 30.052 139.458 30.3 140.514 30.3Q141.576 30.3 142.478 29.9215Q142.841 29.7693 143.178 29.556C143.74 29.2007 144.166 28.7592 144.457 28.2315L144.474 30.06L147.45 30.06L147.45 20.964Q147.45 20.22 147.498 19.452C147.546 18.94 147.594 18.436 147.642 17.94L144.762 17.94L144.554 19.9477C144.264 19.3476 143.813 18.8544 143.202 18.468C142.434 17.956 141.538 17.7 140.514 17.7C139.458 17.7 138.53 17.956 137.73 18.468C136.93 18.964 136.306 19.684 135.858 20.628Q135.186 22.02 135.186 23.988Q135.186 25.956 135.858 27.372C136.306 28.316 136.93 29.044 137.73 29.556ZM150.693 21.036L150.693 30.06L153.717 30.06L153.717 23.604C153.717 22.948 153.829 22.364 154.053 21.852C154.293 21.34 154.645 20.94 155.109 20.652C155.589 20.364 156.173 20.22 156.861 20.22Q157.341 20.22 157.653 20.268Q157.989 20.316 158.445 20.508L158.469 17.868C158.293 17.804 158.117 17.764 157.941 17.748C157.765 17.716 157.533 17.7 157.245 17.7C156.605 17.7 156.013 17.828 155.469 18.084C154.925 18.34 154.461 18.732 154.077 19.26C153.912 19.4975 153.767 19.7625 153.644 20.055L153.429 17.94L150.525 17.94C150.589 18.436 150.629 18.948 150.645 19.476C150.677 20.004 150.693 20.524 150.693 21.036ZM83.9626 27.012C83.3866 27.668 82.6266 27.996 81.6826 27.996C80.7226 27.996 79.9546 27.668 79.3786 27.012C78.8186 26.34 78.5386 25.332 78.5386 23.988Q78.5386 21.972 79.4026 20.988Q79.7361 20.6082 80.1518 20.375Q80.8131 20.004 81.6826 20.004Q82.552 20.004 83.2134 20.375Q83.6291 20.6082 83.9626 20.988C84.5386 21.644 84.8266 22.644 84.8266 23.988C84.8266 25.332 84.5386 26.34 83.9626 27.012ZM107.564 27.012C106.988 27.668 106.228 27.996 105.284 27.996C104.324 27.996 103.556 27.668 102.98 27.012C102.42 26.34 102.14 25.332 102.14 23.988C102.14 22.644 102.428 21.644 103.004 20.988C103.58 20.332 104.34 20.004 105.284 20.004C106.228 20.004 106.988 20.332 107.564 20.988C108.14 21.644 108.428 22.644 108.428 23.988C108.428 25.332 108.14 26.34 107.564 27.012ZM128.753 26.508C128.193 27.148 127.433 27.468 126.473 27.468C125.497 27.468 124.721 27.148 124.145 26.508C123.569 25.852 123.281 24.924 123.281 23.724C123.281 22.524 123.569 21.604 124.145 20.964C124.721 20.324 125.497 20.004 126.473 20.004C127.433 20.004 128.193 20.324 128.753 20.964C129.329 21.604 129.617 22.524 129.617 23.724C129.617 24.924 129.329 25.852 128.753 26.508ZM143.634 27.012C143.058 27.668 142.298 27.996 141.354 27.996C140.394 27.996 139.626 27.668 139.05 27.012C138.49 26.34 138.21 25.332 138.21 23.988C138.21 22.644 138.498 21.644 139.074 20.988C139.65 20.332 140.41 20.004 141.354 20.004C142.298 20.004 143.058 20.332 143.634 20.988C144.21 21.644 144.498 22.644 144.498 23.988C144.498 25.332 144.21 26.34 143.634 27.012Z" fill="#FFFFFF" fill-opacity="1.000000" fill-rule="evenodd"/>
	<ellipse cx="20.259430" cy="20.500000" rx="20.259418" ry="20.500000" fill="#FFFFFF" fill-opacity="1.000000"/>
	<path d="M19.1914 15.741L19.1914 31.315L22.5454 31.315L22.5454 15.741L28.6034 15.741L28.6034 12.985L13.1334 12.985L13.1334 15.741L19.1914 15.741Z" fill="#5B9BF3" fill-opacity="1.000000" fill-rule="evenodd"/>
</svg>
