<svg width="70.668732" height="99.046631" viewBox="0 0 70.6687 99.0466" fill="none" xmlns="http://www.w3.org/2000/svg" xmlns:xlink="http://www.w3.org/1999/xlink">
	<desc>
			Created with Pixso.
	</desc>
	<defs>
		<clipPath id="clip0_112">
			<rect id="Frame" width="70.668732" height="99.046692" fill="white" fill-opacity="0"/>
		</clipPath>
		<linearGradient id="paint_linear_0_114_0" x1="-9.786285" y1="36.228111" x2="80.455002" y2="65.243904" gradientUnits="userSpaceOnUse">
			<stop stop-color="#6CBCFC"/>
			<stop offset="0.171300" stop-color="#5EABFC"/>
			<stop offset="0.408400" stop-color="#509AFC"/>
			<stop offset="0.669800" stop-color="#4890FC"/>
			<stop offset="1.000000" stop-color="#458DFC"/>
		</linearGradient>
		<linearGradient id="paint_linear_0_117_0" x1="-5.504938" y1="-22.285374" x2="58.738113" y2="8.330132" gradientUnits="userSpaceOnUse">
			<stop stop-color="#CFE9FF"/>
			<stop offset="1.000000" stop-color="#A1D6FB"/>
		</linearGradient>
		<linearGradient id="paint_linear_0_118_0" x1="14.770130" y1="2.689396" x2="55.791756" y2="2.689396" gradientUnits="userSpaceOnUse">
			<stop stop-color="#B0F4FF"/>
			<stop offset="1.000000" stop-color="#69DCFC"/>
		</linearGradient>
		<linearGradient id="paint_linear_0_121_0" x1="14.892169" y1="30.451765" x2="25.196762" y2="43.615486" gradientUnits="userSpaceOnUse">
			<stop stop-color="#6CBCFC"/>
			<stop offset="1.000000" stop-color="#458DFC"/>
		</linearGradient>
		<linearGradient id="paint_linear_0_122_0" x1="13.774515" y1="31.308550" x2="24.079166" y2="44.472313" gradientUnits="userSpaceOnUse">
			<stop stop-color="#B0F4FF"/>
			<stop offset="0.099438" stop-color="#A1EFFE"/>
			<stop offset="0.299400" stop-color="#88E7FD"/>
			<stop offset="0.509500" stop-color="#77E1FD"/>
			<stop offset="0.734400" stop-color="#6CDDFC"/>
			<stop offset="1.000000" stop-color="#69DCFC"/>
		</linearGradient>
		<linearGradient id="paint_linear_0_123_0" x1="30.496216" y1="27.681973" x2="53.315815" y2="27.673164" gradientUnits="userSpaceOnUse">
			<stop stop-color="#6CBCFC"/>
			<stop offset="1.000000" stop-color="#458DFC"/>
		</linearGradient>
		<linearGradient id="paint_linear_0_124_0" x1="30.500401" y1="31.698776" x2="45.457695" y2="31.698776" gradientUnits="userSpaceOnUse">
			<stop stop-color="#6CBCFC"/>
			<stop offset="1.000000" stop-color="#458DFC"/>
		</linearGradient>
		<linearGradient id="paint_linear_0_125_0" x1="30.505348" y1="36.501183" x2="60.688114" y2="36.501183" gradientUnits="userSpaceOnUse">
			<stop stop-color="#6CBCFC"/>
			<stop offset="1.000000" stop-color="#458DFC"/>
		</linearGradient>
		<linearGradient id="paint_linear_0_126_0" x1="10.656656" y1="49.968727" x2="60.096550" y2="49.968727" gradientUnits="userSpaceOnUse">
			<stop stop-color="#6CBCFC"/>
			<stop offset="1.000000" stop-color="#458DFC"/>
		</linearGradient>
		<linearGradient id="paint_linear_0_127_0" x1="30.510204" y1="41.202515" x2="60.692951" y2="41.202515" gradientUnits="userSpaceOnUse">
			<stop stop-color="#6CBCFC"/>
			<stop offset="1.000000" stop-color="#458DFC"/>
		</linearGradient>
	</defs>
	<rect id="Frame" width="70.668732" height="99.046692" fill="#FFFFFF" fill-opacity="0"/>
	<g clip-path="url(#clip0_112)">
		<path id="Vector" d="M70.6687 94.3009C70.6687 96.8856 68.5548 98.9862 65.9429 98.9862L4.83063 99.0553C2.75162 99.0553 0.987091 97.7328 0.349426 95.8915C0.183441 95.416 0.0960999 94.9147 0.0960999 94.3875L0 7.1748C0 4.59009 2.11395 2.48962 4.7258 2.48962L60.8415 2.42908L65.8381 2.42041C68.45 2.42041 70.5727 4.51233 70.5727 7.09705L70.6687 94.3009Z" fill="url(#paint_linear_0_114_0)" fill-opacity="1.000000" fill-rule="nonzero"/>
		<path id="Vector" d="M64.3356 93.7996L6.4292 93.8601C5.0228 93.8601 3.88721 92.7363 3.88721 91.3446L3.79987 10.1831C3.79987 8.79138 4.93546 7.6676 6.34186 7.6676L64.2395 7.60706C65.6459 7.60706 66.7815 8.73083 66.7815 10.1226L66.8689 91.2842C66.8776 92.6672 65.742 93.7996 64.3356 93.7996Z" fill="#FFFFFF" fill-opacity="1.000000" fill-rule="nonzero"/>
		<path id="Vector" d="M56.203 14.2979L13.9677 14.3497C12.5701 14.3497 11.4258 13.226 11.4258 11.8428L11.417 4.87549C11.417 3.49243 12.5526 2.35999 13.9503 2.35999L56.1943 2.31677C57.5919 2.31677 58.7362 3.44055 58.7362 4.82361L58.745 11.7909C58.7362 13.1741 57.6006 14.2979 56.203 14.2979ZM13.9503 3.6394C13.2689 3.6394 12.7098 4.19263 12.7098 4.86682L12.7186 11.8342C12.7186 12.5084 13.2776 13.0616 13.959 13.0616L56.203 13.0184C56.8844 13.0184 57.4434 12.4652 57.4434 11.7909L57.4347 4.82361C57.4347 4.14941 56.8756 3.59619 56.1943 3.59619L13.9503 3.6394Z" fill="url(#paint_linear_0_117_0)" fill-opacity="1.000000" fill-rule="nonzero"/>
		<path id="Vector" d="M55.0063 5.3335L15.5663 5.37683C15.1295 5.37683 14.7801 5.03101 14.7801 4.59875L14.7801 0.821167C14.7801 0.389038 15.1295 0.0432129 15.5663 0.0432129L54.9976 0C55.4343 0 55.7837 0.345825 55.7837 0.777954L55.7837 4.55554C55.7925 4.98779 55.4431 5.3335 55.0063 5.3335Z" fill="url(#paint_linear_0_118_0)" fill-opacity="1.000000" fill-rule="nonzero"/>
		<path id="Vector" d="M15.6013 5.37683L54.9714 5.33362C55.4256 5.33362 55.7925 4.97058 55.7925 4.521L55.7925 2.67114L14.7714 2.71436L14.7714 4.56421C14.7714 5.01379 15.147 5.37683 15.6013 5.37683Z" fill="#58D6F4" fill-opacity="1.000000" fill-rule="nonzero"/>
		<path id="Vector" d="M29.438 84.6713L26.0312 64.2706L23.2709 73.1483L15.3742 73.157C14.8937 73.157 14.5094 72.7766 14.5094 72.3011C14.5094 71.8258 14.8937 71.4454 15.3742 71.4454L22.0043 71.4368L26.5554 56.8192L29.9622 77.2717L34.3822 63.2246L36.732 69.8807L42.0256 57.1823L47.1707 77.3236L49.11 70.9181L54.7879 70.9094C55.2684 70.9094 55.6527 71.2898 55.6527 71.7653C55.6527 72.2407 55.2684 72.6211 54.7879 72.6211L50.3941 72.6296L47.031 83.7377L41.6325 62.611L36.5923 74.687L34.4696 68.6792L29.438 84.6713Z" fill="#58D6F4" fill-opacity="1.000000" fill-rule="nonzero"/>
		<path id="Vector" d="M23.5853 45.3396L12.4828 45.3483C10.692 45.3483 9.22446 43.9047 9.22446 42.1326L9.207 26.7716C9.207 24.9995 10.6658 23.5472 12.4565 23.5472L23.5591 23.5386C25.3499 23.5386 26.8174 24.9822 26.8174 26.7543L26.8349 42.1152C26.8349 43.8873 25.3761 45.3309 23.5853 45.3396ZM12.4478 24.4808C11.1725 24.4808 10.1417 25.5095 10.1417 26.7716L10.1591 42.1326C10.1591 43.3947 11.1986 44.4147 12.474 44.4147L23.5766 44.406C24.852 44.406 25.8827 43.3773 25.8827 42.1152L25.8653 26.7543C25.8653 25.4922 24.8257 24.4722 23.5504 24.4722L12.4478 24.4808Z" fill="url(#paint_linear_0_121_0)" fill-opacity="1.000000" fill-rule="nonzero"/>
		<path id="Vector" d="M18.0209 42.3918C23.2709 42.3832 24.9044 39.3837 24.9044 39.3837C24.6685 39.0897 24.3715 38.8304 23.9697 38.571C22.5895 37.6807 21.4801 37.3003 21.0172 36.92C20.5454 36.5483 20.2834 36.0037 20.2834 36.0037L19.9951 36.1766C19.9951 36.1766 19.8204 35.5801 19.9165 34.6725C19.9165 34.6725 20.3271 34.5687 20.6328 33.1943C21.122 33.2894 21.6985 32.0619 21.4277 31.6124C21.253 31.3185 21.0434 31.3444 20.8949 31.4136C21.0434 30.7998 21.716 27.4026 18.0122 27.4026C14.3084 27.4026 14.981 30.7998 15.1383 31.4136C14.9898 31.3444 14.7802 31.3185 14.6054 31.6124C14.3346 32.0619 14.9199 33.2894 15.4091 33.1943C15.7148 34.5687 16.1341 34.6638 16.1341 34.6638C16.2389 35.5629 16.0555 36.168 16.0555 36.168L15.7672 35.995C15.7672 35.995 15.5052 36.531 15.0335 36.9114C14.5618 37.2917 13.4611 37.6807 12.0809 38.571C11.6791 38.8304 11.3734 39.0897 11.1462 39.3837C11.1375 39.4009 12.7798 42.4005 18.0209 42.3918Z" fill="url(#paint_linear_0_122_0)" fill-opacity="1.000000" fill-rule="nonzero"/>
		<path id="Vector" d="M52.5953 28.4399L31.22 28.4658C30.8182 28.4658 30.495 28.146 30.495 27.7483L30.495 27.6273C30.495 27.2297 30.8182 26.9098 31.22 26.9098L52.5953 26.8839C52.9972 26.8839 53.3204 27.2037 53.3204 27.6014L53.3204 27.7224C53.3204 28.12 52.9884 28.4399 52.5953 28.4399Z" fill="url(#paint_linear_0_123_0)" fill-opacity="1.000000" fill-rule="nonzero"/>
		<path id="Vector" d="M44.7336 32.4681L31.22 32.4854C30.8182 32.4854 30.495 32.1655 30.495 31.7679L30.495 31.6469C30.495 31.2493 30.8182 30.9294 31.22 30.9294L44.7336 30.9121C45.1354 30.9121 45.4586 31.2319 45.4586 31.6296L45.4586 31.7506C45.4586 32.1483 45.1354 32.4681 44.7336 32.4681Z" fill="url(#paint_linear_0_124_0)" fill-opacity="1.000000" fill-rule="nonzero"/>
		<g opacity="0.600000">
			<path id="Vector" d="M59.968 37.2572L31.2288 37.2917C30.8269 37.2917 30.5037 36.9719 30.5037 36.5742L30.5037 36.4532C30.5037 36.0555 30.8269 35.7357 31.2288 35.7357L59.968 35.7012C60.3698 35.7012 60.693 36.021 60.693 36.4187L60.693 36.5397C60.6842 36.9373 60.3611 37.2572 59.968 37.2572Z" fill="url(#paint_linear_0_125_0)" fill-opacity="1.000000" fill-rule="nonzero"/>
		</g>
		<g opacity="0.600000">
			<path id="Vector" d="M59.3477 50.7163L11.4083 50.7681C10.9977 50.7681 10.6571 50.4397 10.6571 50.0247L10.6571 49.9556C10.6571 49.5493 10.989 49.2122 11.4083 49.2122L59.3477 49.1603C59.7583 49.1603 60.099 49.4888 60.099 49.9037L60.099 49.9729C60.099 50.3878 59.7583 50.7163 59.3477 50.7163Z" fill="url(#paint_linear_0_126_0)" fill-opacity="1.000000" fill-rule="nonzero"/>
		</g>
		<g opacity="0.600000">
			<path id="Vector" d="M59.968 41.9596L31.2288 41.9941C30.8269 41.9941 30.5037 41.6743 30.5037 41.2766L30.5037 41.1556C30.5037 40.7579 30.8269 40.4381 31.2288 40.4381L59.968 40.4036C60.3698 40.4036 60.693 40.7234 60.693 41.1211L60.693 41.2421C60.693 41.6396 60.3698 41.9596 59.968 41.9596Z" fill="url(#paint_linear_0_127_0)" fill-opacity="1.000000" fill-rule="nonzero"/>
		</g>
	</g>
</svg>
